<svg width="419" height="30" viewBox="0 0 419 30" fill="none" xmlns="http://www.w3.org/2000/svg">
<path d="M20.688 0.216V29.848H24.72V0.216H20.688ZM16.72 11.608V15.032H21.648V11.608H16.72ZM14.064 0.727999V28.44H18V0.727999H14.064ZM0.112 19.672V23.16H2.192C6 23.16 9.136 23.064 12.72 22.36L12.4 18.904C8.88 19.544 5.84 19.672 2.192 19.672H0.112ZM0.112 3.64V21.336H4.336V7.064H11.056V3.64H0.112ZM47.7895 0.247999V22.392H52.0455V0.247999H47.7895ZM50.8295 9.272V12.76H55.9815V9.272H50.8295ZM28.7175 3.32V6.648H46.1575V3.32H28.7175ZM37.4535 7.704C33.1655 7.704 30.1575 10.04 30.1575 13.432C30.1575 16.824 33.1655 19.128 37.4535 19.128C41.7095 19.128 44.7175 16.824 44.7175 13.432C44.7175 10.04 41.7095 7.704 37.4535 7.704ZM37.4535 10.936C39.3415 10.936 40.6535 11.832 40.6535 13.432C40.6535 15.032 39.3415 15.896 37.4535 15.896C35.5655 15.896 34.2535 15.032 34.2535 13.432C34.2535 11.832 35.5655 10.936 37.4535 10.936ZM35.3095 0.183998V4.952H39.5655V0.183998H35.3095ZM32.9415 25.944V29.336H53.1015V25.944H32.9415ZM32.9415 20.728V27.416H37.1975V20.728H32.9415ZM59.659 2.552V16.888H74.027V2.552H59.659ZM69.867 5.912V13.528H63.819V5.912H69.867ZM78.507 0.247999V21.304H82.795V0.247999H78.507ZM63.051 25.816V29.24H83.531V25.816H63.051ZM63.051 19.384V27.32H67.307V19.384H63.051ZM90.8885 1.464V4.856H109.673V1.464H90.8885ZM87.6245 11.704V15.096H114.441V11.704H87.6245ZM98.8565 14.104V20.312H103.113V14.104H98.8565ZM107.113 1.464V3.832C107.113 6.328 107.113 9.048 106.185 12.856L110.377 13.272C111.305 9.368 111.305 6.392 111.305 3.832V1.464H107.113ZM90.3125 19.256V22.616H107.081V29.848H111.337V19.256H90.3125ZM143.444 0.183998V29.912H147.668V0.183998H143.444ZM146.708 11.384V14.904H151.956V11.384H146.708ZM125.652 19.544V23.032H128.148C133.3 23.032 137.364 22.84 141.844 22.04L141.428 18.616C137.076 19.384 133.172 19.544 128.148 19.544H125.652ZM125.62 2.712V6.104H135.028V10.808H125.652V20.856H129.876V14.2H139.252V2.712H125.62ZM175.09 0.216V22.264H179.122V0.216H175.09ZM165.522 8.152V11.576H170.226V8.152H165.522ZM169.138 0.695999V21.368H173.138V0.695999H169.138ZM159.186 25.944V29.336H179.89V25.944H159.186ZM159.186 19.672V27.928H163.442V19.672H159.186ZM154.898 3.064V17.08H166.642V3.064H154.898ZM162.674 6.328V13.816H158.866V6.328H162.674ZM191.582 2.264V15.96H205.597V2.264H191.582ZM201.406 5.624V12.6H195.774V5.624H201.406ZM209.79 0.216V19.736H214.046V0.216H209.79ZM212.862 7.608V11.064H217.982V7.608H212.862ZM202.494 18.392V19.16C202.494 22.36 199.582 25.592 193.246 26.424L194.878 29.752C202.142 28.632 206.142 24.408 206.142 19.16V18.392H202.494ZM203.102 18.392V19.16C203.102 24.408 207.102 28.632 214.366 29.752L215.966 26.424C209.662 25.592 206.718 22.36 206.718 19.16V18.392H203.102ZM227.355 2.776V4.6C227.355 8.088 225.211 11.672 220.251 13.112L222.395 16.44C228.091 14.712 230.843 9.912 230.843 4.6V2.776H227.355ZM228.219 2.776V4.6C228.219 9.72 230.971 14.296 236.571 15.928L238.651 12.632C233.851 11.256 231.707 7.896 231.707 4.6V2.776H228.219ZM221.403 1.816V5.176H237.531V1.816H221.403ZM240.507 0.216V16.28H244.795V0.216H240.507ZM225.083 17.56V29.528H244.795V17.56H240.571V20.248H229.275V17.56H225.083ZM229.275 23.544H240.571V26.136H229.275V23.544ZM270.247 6.264V9.688H278.311V6.264H270.247ZM270.247 15.448V18.872H278.311V15.448H270.247ZM265.127 2.264C260.679 2.264 257.479 6.36 257.479 12.824C257.479 19.352 260.679 23.448 265.127 23.448C269.543 23.448 272.775 19.352 272.775 12.824C272.775 6.36 269.543 2.264 265.127 2.264ZM265.127 6.136C267.303 6.136 268.743 8.472 268.743 12.824C268.743 17.24 267.303 19.608 265.127 19.608C262.983 19.608 261.511 17.24 261.511 12.824C261.511 8.472 262.983 6.136 265.127 6.136ZM277.639 0.183998V29.912H281.863V0.183998H277.639ZM306.852 0.216V29.848H311.14V0.216H306.852ZM298.116 3.288V4.056C298.116 11.992 295.044 17.368 286.532 21.464L288.74 24.856C299.268 19.768 302.34 12.344 302.34 3.288H298.116ZM288.1 3.288V6.648H300.132V3.288H288.1ZM342.224 0.183998V29.912H346.512V0.183998H342.224ZM345.552 11.16V14.648H350.8V11.16H345.552ZM324.432 19.256V22.776H326.928C332.08 22.776 336.144 22.648 340.624 21.848L340.208 18.328C335.856 19.096 331.92 19.256 326.928 19.256H324.432ZM324.432 2.936V20.952H328.656V6.36H338.256V2.936H324.432ZM359.374 18.2V19.192C359.374 22.072 357.742 25.016 353.87 26.328L355.95 29.432C360.59 27.768 362.574 23.672 362.574 19.192V18.2H359.374ZM360.462 18.2V19.192C360.462 23.544 362.158 27.96 366.862 29.72L368.558 26.584C364.942 25.08 363.502 22.072 363.502 19.192V18.2H360.462ZM370.19 18.2V19.192C370.19 21.816 368.718 24.952 365.102 26.584L366.862 29.72C371.47 27.896 373.23 23.288 373.23 19.192V18.2H370.19ZM371.182 18.2V19.192C371.182 23.864 373.102 27.832 377.806 29.432L379.886 26.328C375.982 25.112 374.382 22.264 374.382 19.192V18.2H371.182ZM373.07 0.247999V16.984H377.358V0.247999H373.07ZM361.23 1.752C356.622 1.752 353.166 4.696 353.166 8.856C353.166 12.984 356.622 15.928 361.23 15.928C365.838 15.928 369.262 12.984 369.262 8.856C369.262 4.696 365.838 1.752 361.23 1.752ZM361.23 5.272C363.47 5.272 365.102 6.584 365.102 8.856C365.102 11.096 363.47 12.408 361.23 12.408C358.99 12.408 357.326 11.096 357.326 8.856C357.326 6.584 358.99 5.272 361.23 5.272ZM401.099 0.183998V29.912H405.387V0.183998H401.099ZM404.427 11.16V14.648H409.675V11.16H404.427ZM383.307 19.256V22.776H385.803C390.955 22.776 395.019 22.648 399.499 21.848L399.083 18.328C394.731 19.096 390.795 19.256 385.803 19.256H383.307ZM383.307 2.936V20.952H387.531V6.36H397.131V2.936H383.307ZM418.028 3.72727L417.585 20.0227H413.426L412.972 3.72727H418.028ZM415.506 27.2955C414.756 27.2955 414.112 27.0303 413.574 26.5C413.036 25.9621 412.771 25.3182 412.778 24.5682C412.771 23.8258 413.036 23.1894 413.574 22.6591C414.112 22.1288 414.756 21.8636 415.506 21.8636C416.225 21.8636 416.858 22.1288 417.403 22.6591C417.949 23.1894 418.225 23.8258 418.233 24.5682C418.225 25.0682 418.093 25.5265 417.835 25.9432C417.585 26.3523 417.256 26.6818 416.847 26.9318C416.438 27.1742 415.991 27.2955 415.506 27.2955Z" fill="#F9C320"/>
</svg>
