<svg width="130" height="93" viewBox="0 0 130 93" fill="none" xmlns="http://www.w3.org/2000/svg">
<path d="M28.9996 62.9053L22.8489 66.4564C22.4023 65.8723 21.9051 65.3994 21.3573 65.0377C20.8095 64.676 20.2223 64.4355 19.5958 64.3161C18.9692 64.1967 18.3144 64.2085 17.6314 64.3513C16.9519 64.4812 16.2677 64.745 15.5788 65.1427C14.3569 65.8482 13.4759 66.7559 12.9358 67.866C12.404 68.9713 12.2269 70.2271 12.4047 71.6335C12.5906 73.0351 13.1476 74.5396 14.0756 76.147C15.0415 77.82 16.089 79.0851 17.2181 79.9422C18.3506 80.7864 19.5173 81.2445 20.718 81.3167C21.9222 81.376 23.123 81.0599 24.3203 80.3687C24.9928 79.9804 25.5541 79.5415 26.0041 79.0521C26.4624 78.5579 26.8059 78.026 27.0348 77.4565C27.2671 76.8741 27.3813 76.2669 27.3773 75.635C27.3767 74.9901 27.2546 74.3335 27.0108 73.6651L33.1829 70.1508C33.7202 71.3277 34.0307 72.6137 34.1145 74.0087C34.2064 75.399 34.043 76.811 33.6242 78.2447C33.2006 79.6702 32.4679 81.0336 31.4259 82.335C30.3922 83.6316 29.0101 84.7795 27.2797 85.7785C24.9998 87.0948 22.669 87.7735 20.2871 87.8147C17.9087 87.8429 15.6424 87.194 13.4882 85.8681C11.3339 84.5422 9.45902 82.4974 7.86337 79.7337C6.26299 76.9617 5.43542 74.3067 5.38066 71.7687C5.3259 69.2307 5.91181 66.9406 7.13837 64.8984C8.36494 62.8562 10.0977 61.1888 12.3365 59.8962C13.8619 59.0155 15.3956 58.4143 16.9376 58.0927C18.4748 57.7628 19.9699 57.7197 21.4227 57.9635C22.8709 58.199 24.241 58.7256 25.5332 59.5432C26.8253 60.3608 27.9808 61.4815 28.9996 62.9053ZM41.7596 76.9593L27.2142 51.7658L33.3034 48.2502L44.9937 68.4985L55.4746 62.4473L58.3297 67.3925L41.7596 76.9593ZM53.0258 36.8635L67.5712 62.057L61.482 65.5726L46.9365 40.3791L53.0258 36.8635ZM84.9868 30.581L78.8361 34.1322C78.3895 33.548 77.8923 33.0751 77.3445 32.7135C76.7967 32.3518 76.2095 32.1113 75.5829 31.9919C74.9564 31.8725 74.3016 31.8842 73.6186 32.0271C72.9391 32.1569 72.2549 32.4207 71.566 32.8185C70.3441 33.524 69.4631 34.4317 68.923 35.5418C68.3911 36.6471 68.2141 37.9029 68.3918 39.3093C68.5778 40.7109 69.1348 42.2154 70.0628 43.8228C71.0287 45.4958 72.0762 46.7609 73.2053 47.618C74.3378 48.4621 75.5045 48.9203 76.7052 48.9925C77.9094 49.0517 79.1102 48.7357 80.3075 48.0444C80.98 47.6562 81.5413 47.2173 81.9913 46.7279C82.4495 46.2337 82.7931 45.7018 83.0219 45.1323C83.2543 44.5498 83.3684 43.9427 83.3645 43.3108C83.3639 42.6659 83.2418 42.0093 82.998 41.3409L89.1701 37.8266C89.7074 39.0035 90.0179 40.2895 90.1017 41.6845C90.1936 43.0748 90.0302 44.4868 89.6113 45.9205C89.1878 47.3459 88.4551 48.7094 87.4131 50.0108C86.3794 51.3074 84.9973 52.4553 83.2669 53.4543C80.987 54.7706 78.6562 55.4493 76.2743 55.4905C73.8959 55.5187 71.6296 54.8698 69.4753 53.5439C67.3211 52.218 65.4462 50.1732 63.8506 47.4094C62.2502 44.6375 61.4226 41.9825 61.3679 39.4445C61.3131 36.9065 61.899 34.6163 63.1256 32.5742C64.3521 30.532 66.0848 28.8646 68.3237 27.572C69.8491 26.6913 71.3828 26.0901 72.9248 25.7685C74.462 25.4386 75.957 25.3955 77.4099 25.6392C78.858 25.8748 80.2282 26.4013 81.5204 27.219C82.8125 28.0366 83.968 29.1573 84.9868 30.581ZM97.7468 44.6351L83.2013 19.4416L89.2906 15.926L95.4412 26.5791L95.7733 26.3873L97.9508 10.926L105.123 6.78536L102.683 23.1852L119.828 31.8865L112.546 36.091L100.554 29.8105L99.8943 34.2921L103.836 41.1195L97.7468 44.6351ZM114.598 1.31483L124.124 19.122L119.068 22.041L108.41 4.88728L114.598 1.31483ZM126.249 28.6548C125.372 29.1614 124.437 29.2854 123.446 29.0267C122.463 28.7633 121.716 28.1887 121.204 27.303C120.702 26.4337 120.586 25.5116 120.854 24.5367C121.125 23.5488 121.7 22.8016 122.577 22.2949C123.422 21.8073 124.344 21.6904 125.344 21.9443C126.347 22.1854 127.099 22.7405 127.601 23.6098C127.942 24.2003 128.1 24.8251 128.076 25.4841C128.06 26.1384 127.893 26.7488 127.575 27.3152C127.265 27.8768 126.823 28.3234 126.249 28.6548Z" fill="#FF3D00"/>
</svg>
